<?xml version="1.0" encoding="iso-8859-1"?>
<!-- Generator: Adobe Illustrator 16.0.0, SVG Export Plug-In . SVG Version: 6.00 Build 0)  -->
<!DOCTYPE svg PUBLIC "-//W3C//DTD SVG 1.1//EN" "http://www.w3.org/Graphics/SVG/1.1/DTD/svg11.dtd">
<svg version="1.1" id="Capa_1" xmlns="http://www.w3.org/2000/svg" xmlns:xlink="http://www.w3.org/1999/xlink" x="0px" y="0px"
	 width="619.756px" height="619.756px" viewBox="0 0 619.756 619.756" style="enable-background:new 0 0 619.756 619.756;"
	 xml:space="preserve">
<g>
	<path style="fill:#147fda;" d="M476.517,92.151c-6.827,0-11.396,0.659-13.786,1.318v43.561c2.825,0.645,6.334,0.886,11.15,0.886
		c17.71,0,28.67-8.983,28.67-24.077C502.551,100.248,493.127,92.151,476.517,92.151L476.517,92.151z"/>
	<path style="fill:#147fda;" d="M522.026,147.966c-11.378,10.714-28.234,15.54-47.937,15.54c-4.38,0-8.306-0.204-11.339-0.63v52.738
		h-33.07V70.042c10.277-1.745,24.727-3.048,45.073-3.048c20.573,0,35.25,3.944,45.11,11.818c9.425,7.433,15.758,19.697,15.758,34.15
		C535.602,127.392,530.767,139.651,522.026,147.966L522.026,147.966z M589.284,7.035H369.419c-16.839,0-30.473,12.88-30.473,28.775
		v207.587c0,15.895,13.634,28.78,30.473,28.78h219.864c16.801,0,30.473-12.885,30.473-28.78V35.81
		C619.756,19.915,606.084,7.035,589.284,7.035L589.284,7.035z"/>
	<path style="fill:#147fda;" d="M451.373,462.58c-28.007,0-50.723-22.721-50.723-50.729c0-28.016,22.716-50.723,50.723-50.723
		c28.008,0,50.705,22.707,50.705,50.723C502.078,439.859,479.38,462.58,451.373,462.58L451.373,462.58z M110.407,462.58
		c-28.012,0-50.729-22.721-50.729-50.729c0-28.016,22.707-50.723,50.729-50.723c28.017,0,50.714,22.707,50.714,50.723
		C161.121,439.859,138.414,462.58,110.407,462.58L110.407,462.58z M530.9,301.667H58.745l97.972-169.236
		c0,0,3.541-6.954,20.066-6.954H278.15c0,0,24.044,1.631,23.162-15.037c-0.891-8.846-5.755-14.904-16.231-14.904
		c-10.334,0-134.858,0-134.858,0s-6.352,0.294-13.292,12.254c-6.196,10.619-92.814,160.685-112.137,194.328
		C10.775,304.63,0,318.35,0,335.017v153.598c0,18.602,13.146,33.354,29.368,33.354h29.358v73.629
		c0,9.159,5.912,16.535,13.292,16.535h47.357c7.225,0,13.273-7.376,13.273-16.535v-73.629h295.686v74.236
		c0,9.14,5.896,16.516,13.141,16.516h46.76c7.225,0,13.141-7.376,13.141-16.516v-74.236h29.506
		c16.231,0,29.372-14.753,29.372-33.354V335.017C560.272,316.567,547.131,301.667,530.9,301.667L530.9,301.667z"/>
</g>
<g>
</g>
<g>
</g>
<g>
</g>
<g>
</g>
<g>
</g>
<g>
</g>
<g>
</g>
<g>
</g>
<g>
</g>
<g>
</g>
<g>
</g>
<g>
</g>
<g>
</g>
<g>
</g>
<g>
</g>
</svg>
