<svg width="80" height="78" viewBox="0 0 80 78" fill="none" xmlns="http://www.w3.org/2000/svg">
<path d="M76.6275 38.8119C76.6297 46.0723 74.5415 53.1798 70.6123 59.285C66.6831 65.3903 61.0791 70.2352 54.47 73.2407C52.2781 74.2422 49.9937 75.0275 47.6492 75.5853C41.8466 76.9658 35.801 76.9658 29.9984 75.5853C27.6535 75.0291 25.3689 74.2437 23.1776 73.2407C16.9898 70.4321 11.6731 66.0082 7.78642 60.4341C3.89976 54.8599 1.58676 48.3416 1.09063 41.5644C0.594498 34.7872 1.93356 28.0015 4.96702 21.9208C8.00049 15.8401 12.6163 10.689 18.3291 7.00921C24.0419 3.32942 30.6406 1.25684 37.4314 1.00939C44.2223 0.761936 50.9544 2.34876 56.9198 5.60301C62.8853 8.85726 67.8637 13.6587 71.3317 19.5025C74.7997 25.3463 76.6291 32.0165 76.6275 38.8119Z" fill="white"/>
<path d="M38.8187 77.6356C35.766 77.6379 32.7237 77.2802 29.7548 76.5699C27.3477 75.9975 25.0021 75.1918 22.7513 74.1643C14.6785 70.4929 8.10607 64.1684 4.1271 56.2428C0.148129 48.3171 -0.99748 39.2681 0.880828 30.6009C2.75914 21.9338 7.54814 14.1709 14.4512 8.60352C21.3543 3.03619 29.9554 0 38.8238 0C47.6922 0 56.2933 3.03619 63.1964 8.60352C70.0995 14.1709 74.8885 21.9338 76.7668 30.6009C78.6451 39.2681 77.4995 48.3171 73.5205 56.2428C69.5415 64.1684 62.9691 70.4929 54.8963 74.1643C52.6426 75.1934 50.2935 75.9991 47.8827 76.5699C44.9139 77.2808 41.8715 77.6385 38.8187 77.6356ZM38.8187 2.00799C30.4114 2.00898 22.2579 4.88836 15.7145 10.1672C9.17102 15.4459 4.63213 22.8059 2.85282 31.0228C1.07351 39.2396 2.16107 47.818 5.93456 55.3308C9.70805 62.8437 15.94 68.8381 23.5937 72.317C25.7262 73.2916 27.9497 74.0532 30.2318 74.5906C35.8815 75.9302 41.7661 75.9302 47.4158 74.5906C49.6979 74.0532 51.9214 73.2916 54.0539 72.317C61.7076 68.8381 67.9396 62.8437 71.713 55.3308C75.4865 47.818 76.5741 39.2396 74.7948 31.0228C73.0155 22.8059 68.4766 15.4459 61.9331 10.1672C55.3897 4.88836 47.2361 2.00898 38.8289 2.00799H38.8187Z" fill="#093F68"/>
<path d="M54.47 64.4812V73.2407C52.2781 74.2422 49.9937 75.0275 47.6492 75.5853C41.8466 76.9658 35.801 76.9658 29.9984 75.5853C27.6535 75.0291 25.3689 74.2437 23.1776 73.2407V64.4812C23.1762 63.0902 23.4491 61.7124 23.9805 60.4269C24.5119 59.1413 25.2915 57.973 26.2747 56.9889C27.2578 56.0048 28.4253 55.2241 29.7104 54.6915C30.9955 54.1588 32.3729 53.8846 33.764 53.8846H43.914C46.7174 53.8954 49.4022 55.0166 51.3807 57.0026C53.3592 58.9887 54.47 61.6779 54.47 64.4812Z" fill="#68E1FD"/>
<path d="M38.8187 77.6356C35.766 77.6379 32.7237 77.2802 29.7548 76.5699C27.3477 75.9975 25.0021 75.1918 22.7513 74.1643C22.5751 74.0828 22.426 73.9525 22.3217 73.7887C22.2173 73.625 22.1621 73.4348 22.1626 73.2407V64.4812C22.1626 61.4034 23.3846 58.4515 25.56 56.2742C27.7354 54.0969 30.6862 52.8723 33.7641 52.8696H43.9141C46.9928 52.8723 49.9447 54.0966 52.1217 56.2736C54.2987 58.4506 55.523 61.4025 55.5256 64.4812V73.2407C55.5261 73.4348 55.4709 73.625 55.3666 73.7887C55.2622 73.9525 55.1131 74.0828 54.9369 74.1643C52.6833 75.1934 50.3342 75.9991 47.9233 76.5699C44.9413 77.284 41.8851 77.6417 38.8187 77.6356ZM24.1926 72.5606C26.157 73.4202 28.1953 74.0997 30.2826 74.5906C35.9323 75.9303 41.8169 75.9303 47.4666 74.5906C49.5529 74.0966 51.591 73.4172 53.5565 72.5606V64.4406C53.5539 61.9003 52.5435 59.4647 50.7472 57.6684C48.9509 55.8721 46.5153 54.8617 43.9749 54.8591H33.8249C31.2863 54.8644 28.8534 55.876 27.0593 57.672C25.2651 59.468 24.2562 61.902 24.2535 64.4406L24.1926 72.5606Z" fill="#093F68"/>
<path d="M38.8187 74.1238L36.4335 55.2854L41.6201 55.5188L38.8187 74.1238Z" fill="white"/>
<path d="M38.8187 75.1286C38.5709 75.1307 38.3309 75.042 38.1439 74.8794C37.9569 74.7167 37.8359 74.4913 37.8037 74.2455L35.4185 55.4071C35.4012 55.264 35.4146 55.1188 35.4578 54.9812C35.501 54.8437 35.573 54.7169 35.669 54.6093C35.765 54.5017 35.8829 54.4159 36.0147 54.3574C36.1465 54.299 36.2893 54.2693 36.4335 54.2703L41.6201 54.5038C41.7606 54.5107 41.8981 54.5468 42.0239 54.6097C42.1497 54.6726 42.2611 54.761 42.3509 54.8692C42.4427 54.9795 42.5101 55.108 42.5485 55.2462C42.587 55.3844 42.5958 55.5292 42.5742 55.671L39.7728 74.2658C39.7379 74.4977 39.6238 74.7104 39.4499 74.8676C39.276 75.0249 39.0529 75.1171 38.8187 75.1286ZM37.5906 56.3511L38.9101 66.7244L40.4529 56.483L37.5906 56.3511Z" fill="#093F68"/>
<path d="M37.4891 10.7573C38.1607 10.6532 38.8394 10.6022 39.5191 10.605C42.5641 10.605 45.7004 10.5238 48.4917 11.8839C51.3142 13.2806 53.6928 15.4347 55.3615 18.1054C57.0303 20.7761 57.9235 23.8583 57.9413 27.0074V39.5528H20.5792C20.5046 38.7687 20.5525 37.9776 20.7213 37.2082C20.7034 36.388 20.5841 35.5732 20.366 34.7823C19.9264 32.7393 19.6784 30.6597 19.6251 28.5705C19.6502 25.2824 20.3407 22.0335 21.6551 19.0194C22.2555 17.1405 23.3744 15.4693 24.8828 14.1981C26.4865 13.0613 29.024 13.0207 30.1608 14.6244C32.1067 12.5578 34.6848 11.1974 37.4891 10.7573Z" fill="#725858"/>
<path d="M57.8906 40.5679H20.5792C20.3514 40.5763 20.1274 40.5078 19.9432 40.3733C19.7591 40.2389 19.6256 40.0464 19.5642 39.8269C19.3995 39.1602 19.3995 38.4635 19.5642 37.7969C19.5642 37.5634 19.6454 37.3402 19.6555 37.127C19.6485 36.5745 19.5701 36.0252 19.4221 35.4929C19.4221 35.3102 19.3409 35.1274 19.3104 34.9447C18.8576 32.8417 18.6027 30.7009 18.5492 28.5503C18.5594 25.1233 19.271 21.7347 20.6401 18.5931C21.3061 16.5333 22.5455 14.7059 24.2129 13.3252C25.0579 12.7058 26.0707 12.3568 27.1179 12.3242C28.1651 12.2916 29.1977 12.5769 30.0796 13.1425C32.0873 11.3199 34.5861 10.127 37.2658 9.71185C37.9745 9.60342 38.6905 9.54912 39.4074 9.54945H39.9555C42.9193 9.54945 46.0455 9.54945 48.8266 10.94C51.8229 12.414 54.3482 14.6952 56.1181 17.5267C57.8881 20.3582 58.8323 23.6277 58.8447 26.9668V39.5122C58.8558 39.7781 58.762 40.0378 58.5836 40.2352C58.4051 40.4327 58.1563 40.5521 57.8906 40.5679ZM21.5637 38.5379H56.8756V27.0075C56.8632 24.0473 56.0255 21.1492 54.4566 18.6389C52.8877 16.1287 50.6498 14.1057 47.9943 12.7975C45.5786 11.6201 42.9193 11.62 40.0164 11.62H39.4683C38.8567 11.6231 38.2461 11.6706 37.6413 11.7621C35.0572 12.1505 32.6793 13.3984 30.8916 15.3045C30.7898 15.416 30.6644 15.5034 30.5246 15.5603C30.3847 15.6172 30.2339 15.6421 30.0832 15.6334C29.9325 15.6246 29.7856 15.5824 29.6533 15.5097C29.521 15.437 29.4066 15.3357 29.3183 15.2131C28.5165 14.0966 26.6184 14.1981 25.4512 15.0203C24.1031 16.185 23.1081 17.704 22.5787 19.4051C21.3177 22.2865 20.658 25.3949 20.6401 28.5401C20.6953 30.5676 20.9365 32.5858 21.3607 34.5692C21.3607 34.7316 21.4318 34.9041 21.4622 35.0767C21.6552 35.7773 21.7474 36.5019 21.7363 37.2285C21.7173 37.5417 21.6801 37.8535 21.6246 38.1623L21.5637 38.5379Z" fill="#093F68"/>
<path d="M36.2914 51.8648H41.6201V54.9098C41.6201 55.5101 41.3817 56.0858 40.9572 56.5103C40.5327 56.9348 39.957 57.1733 39.3567 57.1733H38.5548C37.9545 57.1733 37.3788 56.9348 36.9543 56.5103C36.5299 56.0858 36.2914 55.5101 36.2914 54.9098V51.8648Z" fill="#FFC9B0"/>
<path d="M39.3567 58.1679H38.5548C37.6853 58.1679 36.8514 57.8225 36.2366 57.2077C35.6218 56.5929 35.2764 55.759 35.2764 54.8895V51.8445C35.2764 51.5753 35.3833 51.3171 35.5737 51.1268C35.764 50.9364 36.0222 50.8295 36.2914 50.8295H41.6201C41.8893 50.8295 42.1475 50.9364 42.3378 51.1268C42.5282 51.3171 42.6351 51.5753 42.6351 51.8445V54.8895C42.6351 55.759 42.2897 56.5929 41.6749 57.2077C41.0601 57.8225 40.2262 58.1679 39.3567 58.1679ZM37.3267 52.8392V54.8692C37.3267 55.2003 37.4582 55.5178 37.6923 55.752C37.9265 55.9861 38.244 56.1176 38.5751 56.1176H39.377C39.5409 56.1176 39.7033 56.0853 39.8547 56.0226C40.0062 55.9599 40.1438 55.8679 40.2598 55.752C40.3757 55.636 40.4676 55.4984 40.5304 55.347C40.5931 55.1955 40.6254 55.0331 40.6254 54.8692V52.8392H37.3267Z" fill="#093F68"/>
<path d="M23.746 42.4963C26.6049 42.4963 28.9225 40.5014 28.9225 38.0405C28.9225 35.5796 26.6049 33.5846 23.746 33.5846C20.8871 33.5846 18.5695 35.5796 18.5695 38.0405C18.5695 40.5014 20.8871 42.4963 23.746 42.4963Z" fill="#FFC9B0"/>
<path d="M23.7459 43.5113C20.3254 43.5113 17.5544 41.055 17.5544 38.0405C17.5544 35.0259 20.3254 32.5595 23.7459 32.5595C27.1665 32.5595 29.9273 35.0158 29.9273 38.0405C29.9273 41.0652 27.1563 43.5113 23.7459 43.5113ZM23.7459 34.5895C21.452 34.5895 19.5844 36.1323 19.5844 38.0405C19.5844 39.9487 21.452 41.4813 23.7459 41.4813C26.0398 41.4813 27.8973 39.9385 27.8973 38.0405C27.8973 36.1424 25.9992 34.5895 23.7459 34.5895Z" fill="#093F68"/>
<path d="M53.9016 42.4963C56.7605 42.4963 59.0781 40.5014 59.0781 38.0405C59.0781 35.5796 56.7605 33.5846 53.9016 33.5846C51.0427 33.5846 48.7251 35.5796 48.7251 38.0405C48.7251 40.5014 51.0427 42.4963 53.9016 42.4963Z" fill="#FFC9B0"/>
<path d="M53.9017 43.5113C50.4913 43.5113 47.7101 41.055 47.7101 38.0405C47.7101 35.0259 50.4913 32.5595 53.9017 32.5595C57.312 32.5595 60.0931 35.0158 60.0931 38.0405C60.0931 41.0652 57.312 43.5113 53.9017 43.5113ZM53.9017 34.5895C51.6078 34.5895 49.7401 36.1323 49.7401 38.0405C49.7401 39.9487 51.6078 41.4813 53.9017 41.4813C56.1956 41.4813 58.0631 39.9385 58.0631 38.0405C58.0631 36.1424 56.1956 34.5895 53.9017 34.5895Z" fill="#093F68"/>
<path d="M38.9608 52.5651C34.8233 52.5651 30.8553 50.9215 27.9296 47.9958C25.0039 45.0702 23.3603 41.1021 23.3603 36.9646V28.5604C23.3603 28.5604 27.2782 26.3172 28.4353 22.7952C28.4353 22.7952 34.4339 29.6058 40.2194 29.1491C45.0296 28.7299 49.8138 28.0522 54.5512 27.1191V36.9341C54.5552 38.9845 54.155 41.0156 53.3734 42.9112C52.5919 44.8068 51.4443 46.5298 49.9963 47.9815C48.5483 49.4332 46.8284 50.5853 44.9348 51.3718C43.0413 52.1583 41.0112 52.5638 38.9608 52.5651Z" fill="#FFC9B0"/>
<path d="M38.9608 53.5801C34.5549 53.5774 30.3303 51.826 27.2148 48.7106C24.0994 45.5952 22.348 41.3705 22.3453 36.9646V28.5604C22.3463 28.3833 22.3938 28.2095 22.4828 28.0564C22.5718 27.9032 22.6994 27.7761 22.8528 27.6875C22.8528 27.6875 26.456 25.5763 27.4913 22.4704C27.5475 22.3031 27.6463 22.1533 27.778 22.0358C27.9097 21.9183 28.0698 21.8372 28.2424 21.8005C28.4242 21.754 28.6152 21.7588 28.7944 21.8144C28.9736 21.8699 29.1338 21.974 29.2574 22.1151C29.2574 22.1862 34.9922 28.5604 40.189 28.1341C44.9576 27.7284 49.701 27.0677 54.399 26.1549C54.5457 26.1244 54.6973 26.1268 54.843 26.1619C54.9886 26.197 55.1247 26.2639 55.2414 26.3578C55.3592 26.4534 55.454 26.5741 55.519 26.7111C55.584 26.8481 55.6175 26.9979 55.617 27.1495V36.9646C55.6156 39.1496 55.1836 41.313 54.3456 43.3309C53.5076 45.3488 52.28 47.1818 50.7331 48.725C49.1861 50.2681 47.3502 51.4912 45.3302 52.3243C43.3102 53.1574 41.1458 53.5841 38.9608 53.5801ZM24.3753 29.1288V36.9646C24.3753 40.8329 25.912 44.5428 28.6473 47.2781C31.3826 50.0134 35.0925 51.5501 38.9608 51.5501C42.8291 51.5501 46.539 50.0134 49.2744 47.2781C52.0097 44.5428 53.5464 40.8329 53.5464 36.9646V28.3777C51.2322 28.804 45.9237 29.7073 40.3514 30.1641C35.591 30.5396 30.8713 26.5811 28.8108 24.5816C27.6972 26.4148 26.1802 27.9699 24.3753 29.1288Z" fill="#093F68"/>
<path d="M38.8796 40.5678C38.3761 40.5667 37.8735 40.5226 37.3774 40.4359C37.1143 40.3888 36.8804 40.2398 36.7264 40.0213C36.5725 39.8027 36.511 39.5323 36.5553 39.2686C36.5774 39.1364 36.6255 39.0099 36.6967 38.8963C36.768 38.7828 36.861 38.6845 36.9705 38.6071C37.08 38.5297 37.2037 38.4748 37.3345 38.4455C37.4653 38.4162 37.6007 38.4131 37.7327 38.4363C38.2016 38.5186 38.6781 38.5492 39.1537 38.5277C38.8816 37.6056 38.5142 36.7144 38.0575 35.8684C37.9959 35.7498 37.9584 35.6203 37.947 35.4871C37.9356 35.354 37.9506 35.2199 37.9912 35.0926C38.0317 34.9653 38.097 34.8473 38.1833 34.7453C38.2696 34.6433 38.3751 34.5593 38.4939 34.4981C38.7312 34.3762 39.0069 34.3526 39.2614 34.4324C39.5159 34.5122 39.7288 34.6889 39.854 34.9244C41.0619 37.2285 41.478 38.822 41.0923 39.6645C41.0123 39.8517 40.89 40.0178 40.735 40.1499C40.5801 40.2819 40.3967 40.3764 40.1991 40.4257C39.7661 40.5231 39.3234 40.5708 38.8796 40.5678Z" fill="#093F68"/>
<path d="M29.9984 76.6003C29.7292 76.6003 29.471 76.4934 29.2807 76.3031C29.0903 76.1127 28.9834 75.8545 28.9834 75.5853V65.3745C28.9834 65.1053 29.0903 64.8471 29.2807 64.6567C29.471 64.4664 29.7292 64.3595 29.9984 64.3595C30.2676 64.3595 30.5258 64.4664 30.7161 64.6567C30.9065 64.8471 31.0134 65.1053 31.0134 65.3745V75.5853C31.0134 75.8545 30.9065 76.1127 30.7161 76.3031C30.5258 76.4934 30.2676 76.6003 29.9984 76.6003Z" fill="#093F68"/>
<path d="M47.6492 76.6003C47.38 76.6003 47.1219 76.4934 46.9315 76.3031C46.7412 76.1127 46.6342 75.8545 46.6342 75.5853V65.3745C46.6342 65.1053 46.7412 64.8471 46.9315 64.6567C47.1219 64.4664 47.38 64.3595 47.6492 64.3595C47.9184 64.3595 48.1766 64.4664 48.3669 64.6567C48.5573 64.8471 48.6642 65.1053 48.6642 65.3745V75.5853C48.6642 75.8545 48.5573 76.1127 48.3669 76.3031C48.1766 76.4934 47.9184 76.6003 47.6492 76.6003Z" fill="#093F68"/>
<path d="M68.2537 74.3673C73.9771 74.3673 78.6169 69.7276 78.6169 64.0042C78.6169 58.2808 73.9771 53.641 68.2537 53.641C62.5303 53.641 57.8906 58.2808 57.8906 64.0042C57.8906 69.7276 62.5303 74.3673 68.2537 74.3673Z" fill="#70CC40"/>
<path d="M68.2537 75.4229C66.0033 75.4229 63.8035 74.7556 61.9323 73.5054C60.0612 72.2551 58.6029 70.4781 57.7417 68.399C56.8805 66.3199 56.6552 64.0322 57.0942 61.825C57.5332 59.6179 58.6169 57.5905 60.2081 55.9992C61.7994 54.4079 63.8268 53.3243 66.0339 52.8853C68.2411 52.4462 70.5288 52.6716 72.6079 53.5327C74.687 54.3939 76.464 55.8523 77.7143 57.7234C78.9645 59.5945 79.6319 61.7944 79.6319 64.0448C79.6292 67.0616 78.4295 69.9542 76.2963 72.0874C74.1631 74.2206 71.2706 75.4202 68.2537 75.4229ZM68.2537 54.6966C66.4048 54.6966 64.5974 55.2449 63.0602 56.2721C61.5229 57.2993 60.3247 58.7593 59.6171 60.4674C58.9096 62.1756 58.7245 64.0551 59.0852 65.8685C59.4459 67.6819 60.3362 69.3476 61.6436 70.6549C62.9509 71.9623 64.6166 72.8526 66.43 73.2133C68.2433 73.574 70.1229 73.3889 71.8311 72.6814C73.5392 71.9738 74.9992 70.7756 76.0264 69.2383C77.0536 67.701 77.6019 65.8937 77.6019 64.0448C77.6059 62.8141 77.3671 61.5948 76.8992 60.4565C76.4314 59.3183 75.7436 58.2835 74.8752 57.4114C74.0069 56.5393 72.9751 55.847 71.8389 55.3742C70.7027 54.9014 69.4844 54.6574 68.2537 54.656V54.6966Z" fill="#093F68"/>
<path d="M65.0362 69.0183C64.8778 69.0195 64.7202 68.9955 64.5693 68.9472C64.3465 68.8753 64.1434 68.7526 63.9761 68.5888C63.8087 68.425 63.6817 68.2245 63.605 68.0033L61.6562 62.4512C61.5216 62.0703 61.5439 61.6515 61.718 61.287C61.8922 60.9225 62.2041 60.6421 62.585 60.5075C62.9659 60.3729 63.3847 60.3951 63.7492 60.5693C64.1137 60.7435 64.3941 61.0553 64.5287 61.4362L65.8177 65.1105L72.5472 60.4923C72.7115 60.3713 72.8984 60.2846 73.0969 60.2373C73.2953 60.19 73.5012 60.1831 73.7024 60.217C73.9036 60.2508 74.0959 60.3247 74.268 60.4344C74.44 60.544 74.5883 60.6871 74.704 60.8552C74.8196 61.0232 74.9004 61.2128 74.9413 61.4127C74.9823 61.6125 74.9827 61.8186 74.9424 62.0186C74.9022 62.2186 74.8222 62.4085 74.7071 62.577C74.5921 62.7454 74.4443 62.8891 74.2727 62.9993L65.8989 68.7442C65.6452 68.9198 65.3447 69.0153 65.0362 69.0183Z" fill="#093F68"/>
</svg>
